<?xml version="1.0" encoding="utf-8" ?>
<svg baseProfile="tiny" height="1055" version="1.2" width="1055" xmlns="http://www.w3.org/2000/svg" xmlns:ev="http://www.w3.org/2001/xml-events" xmlns:xlink="http://www.w3.org/1999/xlink"><defs /><rect fill="white" height="1055" width="1055" x="0" y="0" /><path d="M 613,507 L 614,508 L 614,509 L 614,508 Z" fill="black" /><path d="M 297,491 L 296,492 L 291,492 L 290,493 L 290,498 L 291,499 L 291,508 L 292,509 L 292,521 L 293,522 L 293,529 L 294,530 L 294,538 L 295,539 L 295,549 L 296,550 L 296,563 L 297,564 L 297,571 L 298,572 L 298,587 L 297,588 L 297,589 L 296,590 L 294,590 L 294,591 L 293,592 L 292,592 L 290,590 L 290,589 L 288,587 L 288,584 L 287,583 L 287,573 L 286,572 L 286,550 L 285,549 L 285,543 L 284,542 L 284,537 L 283,536 L 283,532 L 282,531 L 282,526 L 281,525 L 281,521 L 280,520 L 280,519 L 279,518 L 279,515 L 278,514 L 278,511 L 277,510 L 277,508 L 276,507 L 276,504 L 275,503 L 275,501 L 274,500 L 274,498 L 273,497 L 273,496 L 274,495 L 273,496 L 271,494 L 270,494 L 269,493 L 259,493 L 258,494 L 257,494 L 256,493 L 255,494 L 252,494 L 251,493 L 250,494 L 249,494 L 246,497 L 246,498 L 245,499 L 246,500 L 246,502 L 247,503 L 247,505 L 248,506 L 248,508 L 249,509 L 249,514 L 250,515 L 250,517 L 251,518 L 251,520 L 252,521 L 252,523 L 253,524 L 253,527 L 254,528 L 254,531 L 255,532 L 255,534 L 256,535 L 256,538 L 257,539 L 257,543 L 258,544 L 258,548 L 259,549 L 259,551 L 260,552 L 260,557 L 261,558 L 261,565 L 262,566 L 262,571 L 263,572 L 263,581 L 264,582 L 264,591 L 265,592 L 265,595 L 266,596 L 266,597 L 267,598 L 267,599 L 269,601 L 268,602 L 269,601 L 270,602 L 270,603 L 272,605 L 271,606 L 273,608 L 274,607 L 275,607 L 277,609 L 278,609 L 279,610 L 280,610 L 281,611 L 282,611 L 283,612 L 284,612 L 285,613 L 299,613 L 300,612 L 301,612 L 302,611 L 303,611 L 304,612 L 306,610 L 307,610 L 309,608 L 310,608 L 311,609 L 312,609 L 311,609 L 310,608 L 311,607 L 312,607 L 320,599 L 320,598 L 321,597 L 322,598 L 322,599 L 322,598 L 321,597 L 321,596 L 322,595 L 322,594 L 323,593 L 323,592 L 324,591 L 324,588 L 325,587 L 325,579 L 326,578 L 326,543 L 325,542 L 325,524 L 324,523 L 324,514 L 323,513 L 323,506 L 322,505 L 322,500 L 321,499 L 321,493 L 320,492 L 319,492 L 318,491 Z" fill="black" /><path d="M 274,491 L 273,492 L 273,493 L 273,492 Z" fill="black" /><path d="M 143,487 L 142,488 L 140,488 L 137,491 L 137,497 L 138,498 L 138,499 L 139,500 L 139,501 L 140,501 L 142,503 L 145,503 L 146,504 L 149,504 L 150,505 L 152,505 L 153,506 L 157,506 L 158,507 L 162,507 L 163,508 L 167,508 L 168,509 L 169,509 L 172,512 L 172,513 L 173,514 L 173,516 L 174,517 L 174,518 L 175,519 L 175,520 L 176,521 L 176,523 L 177,524 L 177,525 L 178,526 L 178,527 L 179,528 L 179,529 L 178,530 L 179,529 L 180,530 L 180,532 L 181,533 L 181,534 L 180,535 L 181,534 L 182,535 L 182,537 L 183,538 L 183,540 L 184,541 L 184,542 L 185,543 L 185,544 L 186,545 L 186,546 L 187,547 L 186,548 L 187,548 L 188,549 L 187,550 L 189,552 L 189,553 L 190,554 L 190,556 L 191,557 L 191,558 L 192,559 L 192,561 L 194,563 L 194,564 L 195,565 L 195,567 L 196,568 L 196,570 L 197,571 L 197,572 L 198,573 L 198,574 L 199,575 L 199,576 L 200,577 L 200,578 L 201,579 L 201,580 L 200,581 L 201,580 L 204,583 L 205,583 L 206,584 L 207,583 L 208,583 L 209,584 L 209,583 L 212,580 L 212,578 L 213,577 L 213,575 L 212,574 L 212,569 L 211,568 L 211,565 L 210,564 L 210,562 L 209,561 L 209,559 L 208,558 L 208,555 L 209,554 L 207,552 L 207,550 L 206,549 L 206,545 L 205,544 L 205,541 L 204,540 L 204,538 L 203,537 L 203,534 L 202,533 L 202,531 L 201,530 L 201,526 L 200,525 L 200,523 L 201,522 L 200,522 L 199,521 L 199,518 L 198,517 L 198,515 L 199,514 L 215,514 L 216,513 L 218,513 L 219,512 L 220,512 L 221,511 L 222,511 L 223,510 L 224,510 L 224,509 L 225,508 L 225,504 L 224,503 L 224,501 L 219,496 L 218,496 L 217,495 L 214,495 L 213,494 L 208,494 L 207,493 L 196,493 L 195,492 L 187,492 L 186,491 L 180,491 L 179,490 L 173,490 L 172,489 L 160,489 L 159,488 L 152,488 L 151,487 Z" fill="black" /><path d="M 480,462 L 481,463 L 476,468 L 475,468 L 475,470 L 473,472 L 472,471 L 473,472 L 470,475 L 470,476 L 469,477 L 468,476 L 469,477 L 467,479 L 466,478 L 467,479 L 467,480 L 465,482 L 465,483 L 459,489 L 459,490 L 457,492 L 457,493 L 455,495 L 455,496 L 451,500 L 451,501 L 450,502 L 449,501 L 449,500 L 449,501 L 450,502 L 446,506 L 446,507 L 444,509 L 444,510 L 443,511 L 442,510 L 443,511 L 441,513 L 441,514 L 439,516 L 438,515 L 439,516 L 438,517 L 438,518 L 435,521 L 435,522 L 428,529 L 427,529 L 425,531 L 422,531 L 421,530 L 420,530 L 417,527 L 416,527 L 415,526 L 416,525 L 415,526 L 409,520 L 408,520 L 407,519 L 407,518 L 406,517 L 407,516 L 406,517 L 405,516 L 404,516 L 398,510 L 398,509 L 399,508 L 398,509 L 397,509 L 389,501 L 388,501 L 387,500 L 387,499 L 386,499 L 385,498 L 385,497 L 384,497 L 376,489 L 375,489 L 373,487 L 369,487 L 368,486 L 367,487 L 364,487 L 363,488 L 363,489 L 362,490 L 362,505 L 363,506 L 363,511 L 364,512 L 364,517 L 365,518 L 365,528 L 366,529 L 366,544 L 367,545 L 367,547 L 366,548 L 366,549 L 367,550 L 367,573 L 368,574 L 368,602 L 369,603 L 369,610 L 368,611 L 371,614 L 376,614 L 379,611 L 379,610 L 380,609 L 380,608 L 381,607 L 381,605 L 382,604 L 382,597 L 383,596 L 383,587 L 384,586 L 384,575 L 385,574 L 385,573 L 384,572 L 384,569 L 385,568 L 385,559 L 384,558 L 384,554 L 385,553 L 384,552 L 384,551 L 386,549 L 387,549 L 388,550 L 388,551 L 393,556 L 393,557 L 392,558 L 393,557 L 398,562 L 398,563 L 401,566 L 401,567 L 408,574 L 408,575 L 410,577 L 410,578 L 409,579 L 410,578 L 418,586 L 419,586 L 420,587 L 424,587 L 425,586 L 426,586 L 428,584 L 429,584 L 430,585 L 431,584 L 430,583 L 433,580 L 433,579 L 434,578 L 435,578 L 435,577 L 436,576 L 437,577 L 436,576 L 441,571 L 441,570 L 444,567 L 445,568 L 445,567 L 446,566 L 447,566 L 446,566 L 445,565 L 446,564 L 446,563 L 449,560 L 449,559 L 450,558 L 454,562 L 450,558 L 451,557 L 451,556 L 455,552 L 455,551 L 456,550 L 456,549 L 457,548 L 458,548 L 458,547 L 459,546 L 460,547 L 460,556 L 459,557 L 459,566 L 458,567 L 458,581 L 457,582 L 457,586 L 456,587 L 456,592 L 455,593 L 455,605 L 458,608 L 459,608 L 460,609 L 461,609 L 462,610 L 463,609 L 465,609 L 466,610 L 467,609 L 469,609 L 470,608 L 471,608 L 472,607 L 474,607 L 474,606 L 477,603 L 477,602 L 478,601 L 478,600 L 479,599 L 479,596 L 480,595 L 480,593 L 481,592 L 481,590 L 482,589 L 482,587 L 483,586 L 483,583 L 484,582 L 484,579 L 485,578 L 486,579 L 485,578 L 485,577 L 486,576 L 486,573 L 487,572 L 487,565 L 488,564 L 488,557 L 489,556 L 489,547 L 490,546 L 490,536 L 491,535 L 491,518 L 492,517 L 492,507 L 493,506 L 493,493 L 494,492 L 494,480 L 495,479 L 495,477 L 494,476 L 495,475 L 495,469 L 494,468 L 494,467 L 490,463 L 491,462 L 490,463 L 488,463 L 487,462 L 484,462 L 483,463 L 481,463 Z" fill="black" /><path d="M 590,432 L 589,433 L 586,433 L 585,434 L 582,434 L 581,435 L 577,435 L 576,436 L 574,436 L 573,437 L 571,437 L 570,438 L 566,438 L 565,439 L 562,439 L 561,440 L 559,440 L 558,441 L 556,441 L 555,442 L 552,442 L 551,443 L 548,443 L 547,444 L 545,444 L 544,445 L 543,445 L 542,446 L 541,446 L 539,448 L 539,449 L 538,450 L 538,453 L 537,454 L 537,502 L 536,503 L 536,518 L 535,519 L 535,528 L 534,529 L 534,534 L 533,535 L 533,540 L 532,541 L 532,548 L 531,549 L 531,555 L 530,556 L 530,559 L 529,560 L 529,564 L 528,565 L 528,572 L 527,573 L 527,578 L 526,579 L 526,583 L 525,584 L 525,586 L 524,587 L 524,588 L 525,588 L 526,589 L 526,590 L 527,591 L 529,591 L 530,592 L 531,592 L 532,591 L 537,591 L 538,590 L 542,590 L 543,589 L 546,589 L 547,588 L 552,588 L 553,587 L 558,587 L 559,586 L 562,586 L 563,585 L 567,585 L 568,584 L 575,584 L 576,583 L 580,583 L 581,582 L 584,582 L 585,581 L 586,581 L 587,580 L 589,580 L 590,579 L 591,579 L 592,578 L 593,578 L 594,577 L 595,578 L 594,577 L 596,575 L 597,575 L 598,574 L 599,575 L 598,574 L 598,573 L 599,572 L 600,572 L 600,571 L 603,568 L 603,567 L 606,564 L 606,563 L 607,562 L 607,560 L 608,559 L 608,558 L 609,557 L 609,555 L 610,554 L 610,553 L 611,552 L 611,549 L 612,548 L 612,544 L 613,543 L 613,539 L 614,538 L 614,533 L 615,532 L 615,524 L 614,523 L 614,519 L 613,518 L 613,517 L 612,516 L 613,515 L 612,516 L 611,515 L 611,513 L 610,513 L 609,512 L 609,511 L 606,508 L 607,507 L 607,506 L 609,504 L 609,503 L 612,500 L 613,500 L 613,499 L 614,498 L 614,497 L 615,496 L 615,495 L 616,494 L 616,493 L 618,491 L 618,489 L 619,488 L 619,485 L 620,484 L 621,485 L 621,484 L 620,483 L 620,482 L 621,481 L 621,478 L 622,477 L 622,469 L 623,468 L 623,460 L 622,459 L 623,458 L 623,457 L 622,456 L 622,452 L 621,451 L 621,449 L 620,448 L 620,447 L 621,446 L 620,447 L 619,446 L 619,444 L 618,443 L 618,442 L 612,436 L 611,436 L 610,435 L 608,435 L 607,434 L 606,434 L 605,433 L 604,433 L 603,432 Z" fill="black" /><path d="M 847,420 L 848,421 L 847,422 L 846,422 L 845,423 L 843,423 L 842,424 L 841,424 L 839,426 L 838,426 L 838,427 L 836,429 L 835,429 L 835,430 L 832,433 L 831,433 L 830,434 L 830,436 L 828,438 L 827,437 L 828,438 L 828,439 L 826,441 L 826,442 L 825,443 L 825,444 L 824,445 L 824,446 L 823,447 L 823,448 L 822,449 L 822,452 L 821,453 L 821,454 L 820,455 L 820,456 L 819,457 L 819,459 L 818,460 L 818,462 L 817,463 L 817,464 L 816,465 L 816,467 L 815,468 L 814,467 L 815,468 L 815,469 L 814,470 L 814,471 L 813,472 L 813,473 L 812,474 L 812,476 L 811,477 L 811,478 L 810,479 L 810,481 L 809,482 L 809,483 L 808,484 L 807,483 L 808,484 L 808,485 L 807,486 L 807,488 L 806,489 L 806,490 L 805,491 L 805,492 L 804,493 L 804,494 L 803,495 L 803,496 L 802,497 L 802,498 L 801,499 L 801,500 L 800,501 L 800,502 L 799,503 L 799,504 L 797,506 L 797,508 L 796,509 L 796,510 L 795,511 L 795,512 L 794,513 L 794,514 L 793,515 L 793,516 L 792,517 L 792,518 L 791,519 L 791,520 L 790,521 L 790,522 L 789,523 L 789,524 L 788,525 L 788,526 L 787,527 L 787,528 L 785,530 L 785,531 L 784,532 L 784,534 L 783,535 L 782,534 L 781,535 L 782,534 L 783,535 L 783,536 L 782,537 L 782,538 L 780,540 L 780,541 L 779,542 L 779,543 L 778,544 L 778,545 L 777,546 L 777,547 L 776,548 L 776,549 L 775,550 L 775,552 L 774,553 L 774,554 L 773,555 L 773,556 L 772,557 L 772,572 L 773,573 L 773,575 L 774,576 L 774,577 L 775,578 L 774,579 L 776,581 L 776,582 L 778,584 L 776,586 L 778,584 L 781,587 L 781,588 L 782,588 L 785,591 L 784,592 L 785,593 L 784,592 L 785,591 L 786,591 L 788,593 L 789,593 L 791,595 L 793,595 L 794,596 L 795,596 L 796,597 L 797,597 L 798,598 L 800,598 L 801,599 L 822,599 L 823,598 L 826,598 L 827,597 L 830,597 L 832,595 L 834,595 L 835,594 L 836,594 L 837,593 L 838,593 L 840,591 L 841,592 L 841,591 L 842,590 L 843,590 L 846,587 L 847,587 L 857,577 L 858,577 L 858,576 L 861,573 L 862,574 L 861,573 L 861,572 L 865,568 L 865,567 L 867,565 L 868,566 L 869,565 L 868,564 L 868,563 L 870,561 L 870,560 L 872,558 L 872,557 L 874,555 L 874,554 L 875,553 L 875,552 L 877,550 L 877,549 L 878,548 L 878,547 L 880,545 L 881,546 L 880,545 L 880,544 L 882,542 L 882,541 L 883,540 L 883,538 L 885,536 L 885,535 L 886,534 L 886,533 L 887,532 L 887,531 L 888,530 L 888,529 L 889,528 L 889,527 L 890,526 L 890,525 L 891,524 L 891,523 L 892,522 L 893,523 L 892,522 L 892,521 L 893,520 L 893,519 L 894,518 L 894,517 L 895,516 L 895,515 L 896,514 L 896,513 L 897,512 L 897,510 L 899,508 L 899,507 L 900,506 L 900,504 L 901,503 L 901,502 L 903,500 L 903,498 L 904,497 L 904,496 L 905,495 L 906,496 L 905,495 L 905,494 L 906,493 L 906,492 L 907,491 L 907,489 L 908,488 L 908,486 L 909,485 L 909,477 L 910,476 L 910,465 L 909,464 L 909,458 L 908,457 L 908,455 L 907,454 L 907,453 L 906,452 L 906,451 L 905,450 L 905,449 L 902,446 L 902,445 L 901,444 L 901,443 L 900,443 L 899,442 L 899,441 L 898,441 L 897,440 L 897,439 L 896,439 L 893,436 L 892,436 L 889,433 L 888,433 L 886,431 L 886,430 L 885,431 L 884,430 L 883,430 L 881,428 L 880,428 L 879,427 L 878,427 L 877,426 L 876,426 L 875,425 L 874,425 L 873,424 L 872,424 L 871,423 L 869,423 L 868,422 L 867,422 L 866,421 L 864,421 L 863,420 L 850,420 L 849,421 L 848,421 Z" fill="black" /><path d="M 730,409 L 729,410 L 726,410 L 725,411 L 722,411 L 721,412 L 716,412 L 715,413 L 712,413 L 711,414 L 708,414 L 707,415 L 702,415 L 701,416 L 698,416 L 697,417 L 695,417 L 693,419 L 692,419 L 691,420 L 689,420 L 689,421 L 685,425 L 684,425 L 685,426 L 683,428 L 683,430 L 682,431 L 682,435 L 681,436 L 681,441 L 680,442 L 680,446 L 679,447 L 679,454 L 678,455 L 678,459 L 677,460 L 677,463 L 676,464 L 676,470 L 675,471 L 675,478 L 674,479 L 674,483 L 673,484 L 673,488 L 672,489 L 672,493 L 671,494 L 671,501 L 670,502 L 670,506 L 669,507 L 669,511 L 668,512 L 668,515 L 667,516 L 667,520 L 666,521 L 666,524 L 665,525 L 665,527 L 664,528 L 664,530 L 663,531 L 663,535 L 662,536 L 662,538 L 661,539 L 661,540 L 660,541 L 660,543 L 659,544 L 659,546 L 658,547 L 658,548 L 657,549 L 657,550 L 656,551 L 656,554 L 655,555 L 655,557 L 654,558 L 654,560 L 653,561 L 653,563 L 652,564 L 652,568 L 651,569 L 651,570 L 652,571 L 652,573 L 651,574 L 652,573 L 655,576 L 657,576 L 658,577 L 662,577 L 663,576 L 664,576 L 665,577 L 664,576 L 667,573 L 668,573 L 669,574 L 668,573 L 669,572 L 668,571 L 672,567 L 672,566 L 674,564 L 674,563 L 675,562 L 675,561 L 676,560 L 677,561 L 676,560 L 676,559 L 677,558 L 677,557 L 678,556 L 678,555 L 679,554 L 679,553 L 680,552 L 682,554 L 680,552 L 680,551 L 681,550 L 681,549 L 682,548 L 682,547 L 683,546 L 683,545 L 684,544 L 685,545 L 685,544 L 684,543 L 684,542 L 686,540 L 686,539 L 687,538 L 687,537 L 688,536 L 688,535 L 689,534 L 689,533 L 690,532 L 690,531 L 693,528 L 692,527 L 692,526 L 694,524 L 694,522 L 696,520 L 696,518 L 698,516 L 698,515 L 699,514 L 699,513 L 702,510 L 703,511 L 706,508 L 712,508 L 713,509 L 714,509 L 715,510 L 716,510 L 718,512 L 719,512 L 720,513 L 720,514 L 721,515 L 721,517 L 722,518 L 722,521 L 721,522 L 721,528 L 720,529 L 720,530 L 719,531 L 719,533 L 718,534 L 717,533 L 718,534 L 718,536 L 717,537 L 717,539 L 716,540 L 716,542 L 715,543 L 714,542 L 715,543 L 715,545 L 714,546 L 714,548 L 713,549 L 713,551 L 712,552 L 712,554 L 711,555 L 711,556 L 710,557 L 709,557 L 710,558 L 710,560 L 709,561 L 709,562 L 708,563 L 708,565 L 707,566 L 707,567 L 706,568 L 706,573 L 705,574 L 705,575 L 707,577 L 706,578 L 707,577 L 708,578 L 708,579 L 710,579 L 711,580 L 715,580 L 716,579 L 718,579 L 720,577 L 721,578 L 720,577 L 721,576 L 723,576 L 723,575 L 724,574 L 724,573 L 725,572 L 725,571 L 726,570 L 727,571 L 726,570 L 727,569 L 727,568 L 728,567 L 728,566 L 730,564 L 730,563 L 731,562 L 731,561 L 732,560 L 732,559 L 733,558 L 733,557 L 735,555 L 735,553 L 737,551 L 737,550 L 738,549 L 738,547 L 739,546 L 739,545 L 740,544 L 740,543 L 741,542 L 741,540 L 742,539 L 742,538 L 743,537 L 743,535 L 744,534 L 744,533 L 745,532 L 745,530 L 746,529 L 746,527 L 747,526 L 747,524 L 748,523 L 748,521 L 749,520 L 749,518 L 750,517 L 750,516 L 751,515 L 750,514 L 751,513 L 751,510 L 752,509 L 752,507 L 753,506 L 753,503 L 754,502 L 754,497 L 755,496 L 755,493 L 756,492 L 757,493 L 756,492 L 756,491 L 757,490 L 757,486 L 758,485 L 758,481 L 759,480 L 759,477 L 761,475 L 760,474 L 761,473 L 761,470 L 762,469 L 762,464 L 763,463 L 763,460 L 764,459 L 764,456 L 765,455 L 765,452 L 766,451 L 766,435 L 765,434 L 765,430 L 764,429 L 764,428 L 763,427 L 763,424 L 760,421 L 760,420 L 759,420 L 758,419 L 758,418 L 757,418 L 752,413 L 751,413 L 750,412 L 749,412 L 748,411 L 747,411 L 746,410 L 742,410 L 741,409 Z" fill="black" /></svg>