<?xml version="1.0" encoding="UTF-8"?>
<svg xmlns="http://www.w3.org/2000/svg" width="500" height="500" version="1.1" viewBox="0 0 500 500">
  <!-- Generator: Adobe Illustrator 28.6.0, SVG Export Plug-In . SVG Version: 1.2.0 Build 709)  -->
  <g>
    <g id="Layer_1">
      <g>
        <path d="M500,500c-166.66,0-333.31,0-500,0V0C166.65,0,333.32,0,500,0v500ZM431.49,224.49c.29-7.27-1.86-12.49-6.68-16.55-4.03-3.39-8.49-6.03-13.37-8.01-4.83-1.96-9.24-1.31-13.39,1.76-3.96,2.94-6.36,6.94-8.12,11.47-3.19,8.21-6.47,16.38-10.42,24.25-4.02,8.01-8.17,15.95-12.06,24.03-3.35,6.95-1.32,14.53,4.93,19.03,6.64,4.78,13.9,5.23,21.41,2.55,4.79-1.71,8.67-4.85,12.07-8.58,3.9-4.29,7.29-8.97,10.24-13.98,4.51-7.67,8.04-15.83,12.08-23.74,2.15-4.19,3.4-8.53,3.32-12.24ZM349.06,193.77c-.16,0-.32-.02-.47,0-6.45.72-12.77,2.12-18.94,4.05-3.57,1.11-5.72,3.85-6.35,7.64-1.63,9.7-3.29,19.4-4.89,29.11-1.19,7.21-2.56,14.37-5,21.29-1.5,4.26-3.27,8.44-4.31,12.85-.55,2.34.05,3.73,1.85,4.61,1.99.97,3.55.66,5.09-1.07,1.8-2.02,3.33-4.23,4.53-6.67,2.46-4.98,4.9-9.96,7.39-14.93,1.21-2.41,2.47-4.79,3.76-7.16.81-1.49,2.12-2.31,3.83-2.42,4.26-.29,6.92,2.4,6.6,6.67-.06.8-.24,1.57-.49,2.32-1.34,3.99-2.67,7.97-4.01,11.96-.83,2.48-1.75,4.94-2.49,7.45-.72,2.43-.22,4.41,1.11,5.22,1.5.92,3.93.43,5.66-1.11.84-.74,1.54-1.6,2.12-2.55,5.2-8.5,9.33-17.51,11.86-27.16,2.45-9.36,4.58-18.8,6.84-28.21.77-3.21.77-6.43.36-9.7-.96-7.52-7.74-12.72-14.02-12.19ZM217.94,258.82c.15.04.3.07.45.11-.78,6.14-.8,12.34-1.78,18.46-.38,2.35-.74,4.71-.98,7.08-.3,2.98,1.21,4.64,4.19,4.83,3.11.2,5.91-1.49,7.01-4.6,1.58-4.48,3.17-8.99,4.06-13.68,1.14-6.01,1.49-12.13,1.92-18.22.39-5.54.85-11.08,1.21-16.63.27-4.2.71-8.39.67-12.61-.02-1.73-.67-3.07-2.26-3.87-1.64-.83-3.19-.72-4.7.3-.8.54-1.46,1.21-2.04,1.97-2.79,3.65-5.59,7.29-8.38,10.95-4.09,5.35-8.09,10.77-12.28,16.05-2.68,3.37-5.07,3.4-8.19.46-.17-.16-.33-.35-.5-.51-5.75-5.44-11.51-10.87-17.25-16.33-1.14-1.09-2.42-1.78-3.97-1.9-2.12-.17-3.09.67-3.21,2.8-.14,2.62-.07,5.23.31,7.84.5,3.45,1.04,6.9,1.29,10.39.44,6.18.46,12.38.73,18.57.26,6.11.36,12.23.58,18.34.09,2.46,1.4,3.4,3.53,2.65.81-.28,1.24-.94,1.65-1.63,1.04-1.76,1.29-3.73,1.54-5.7.87-7.03,1.21-14.08,1.02-21.16-.02-.75-.24-1.57.35-2.32,1.17.22,1.61,1.23,2.24,1.99,3.93,4.77,7.75,9.63,11.79,14.3,2.13,2.47,4.15,2.43,6.58.28,2.2-1.94,4.06-4.22,5.82-6.57,2.9-3.86,5.74-7.75,8.61-11.63ZM295.29,220.32c0-1.19.1-2.39-.02-3.57-.55-5.37-2.82-9.53-8.13-11.53-2.78-1.05-5.58-.91-8.38-.18-4.74,1.23-9.47,2.48-14.19,3.75-2.06.55-4.11,1.13-6.14,1.79-2.26.74-3.51,2.33-3.59,4.77-.07,2.14-.21,4.27-.11,6.42.32,6.75-.09,13.5-.51,20.23-.59,9.52-2.35,18.89-3.91,28.29-.36,2.19-.8,4.37-1.09,6.57-.44,3.39.49,4.26,3.78,3.74.08-.01.15-.03.23-.05,7.37-1.37,14.75-2.7,22.11-4.12,4.64-.9,8.27-3.38,10.88-7.38,3.62-5.56,4.93-11.8,5.36-18.29.22-3.42-.8-6.47-3.32-8.83-1.06-1-.77-1.56.08-2.48,2.33-2.51,4.24-5.29,5.34-8.62,1.14-3.43,1.79-6.91,1.62-10.52ZM154.97,264.83c-.14,0-.29,0-.43,0,0-3.33.15-6.67-.03-9.99-.36-6.41-.87-12.82-1.95-19.17-.43-2.56-1.03-3.12-3.6-3.07-3.15.06-6.31.26-9.46.37-1.28.04-1.9.63-1.77,1.94.17,1.74.34,3.47.5,5.21,1.08,11.53,2.16,23.06,3.25,34.6.14,1.53.05,3.03-.54,4.44-.35.84-1.02,1.44-2.01,1.42-.9-.02-1.46-.64-1.74-1.41-.32-.89-.54-1.83-.68-2.76-.74-4.8-.33-9.66-.84-14.49-.92-8.72-2.82-17.2-5.64-25.49-.59-1.73-1.61-2.63-3.49-2.54-1.97.1-3.95.03-5.92.12-3.41.16-4.36,1.44-3.5,4.78.73,2.84,1.53,5.66,2.34,8.48,2.92,10.16,5.21,20.42,5.61,31.06.21,5.78,5.07,11.58,10.42,12.4,10.57,1.62,17.99-4.93,18.96-14.25.4-3.86.36-7.77.51-11.65ZM93.99,243.82c2.28-.37,4.4-.17,6.52-.14,1.79.02,3.44-.31,4.92-1.38,1.42-1.03,1.81-2.04,1.2-3.7-.9-2.44-2.67-3.91-5.24-4.23-4.07-.51-8.15-.94-12.22-1.42-5.17-.6-10.33-1.26-15.51-1.8-1.79-.19-3.61-.51-5.42-.23-1.5.24-2.69.94-3.11,2.53-.44,1.64.14,2.96,1.37,4.04.79.7,1.75,1.05,2.74,1.35,2.94.92,5.96,1.53,8.97,2.15,2.03.42,3.27,1.46,4.09,3.46,3.62,8.79,7.38,17.53,11.1,26.28.59,1.38,1.15,2.8,1.89,4.1.86,1.51,2.59,2.3,3.75,1.92,1.11-.37,1.94-1.8,1.96-3.53.01-1.44-.34-2.83-.7-4.22-1.48-5.76-2.97-11.51-4.43-17.27-.66-2.59-1.23-5.21-1.87-7.91Z" fill="#fff"/>
        <path d="M431.49,224.49c.08,3.71-1.17,8.04-3.32,12.24-4.04,7.9-7.57,16.07-12.08,23.74-2.95,5.01-6.34,9.68-10.24,13.98-3.39,3.73-7.27,6.87-12.07,8.58-7.52,2.69-14.77,2.24-21.41-2.55-6.25-4.5-8.28-12.08-4.93-19.03,3.89-8.07,8.05-16.01,12.06-24.03,3.95-7.88,7.24-16.05,10.42-24.25,1.76-4.53,4.15-8.54,8.12-11.47,4.15-3.08,8.56-3.73,13.39-1.76,4.88,1.98,9.33,4.61,13.37,8.01,4.83,4.06,6.97,9.28,6.68,16.55ZM416.71,221.88c.25-3.95-1.41-6.35-4.06-7.28-1.87-.65-2.76-.32-3.61,1.5-1.99,4.31-3.96,8.64-5.9,12.98-4.27,9.54-8.19,19.24-13.73,28.16-1.59,2.55-3.03,5.2-4.41,7.87-.83,1.61-.58,2.86.4,3.7,1.19,1.02,2.68,1.04,4.12-.04,1.85-1.39,3.36-3.11,4.56-5.1,6.41-10.74,12.95-21.41,18.86-32.44,1.79-3.34,3.73-6.67,3.78-9.34Z"/>
        <path d="M349.06,193.77c6.28-.53,13.07,4.67,14.02,12.19.41,3.27.41,6.49-.36,9.7-2.27,9.41-4.4,18.85-6.84,28.21-2.53,9.66-6.65,18.66-11.86,27.16-.58.95-1.28,1.81-2.12,2.55-1.73,1.54-4.16,2.03-5.66,1.11-1.33-.81-1.82-2.79-1.11-5.22.74-2.51,1.65-4.97,2.49-7.45,1.34-3.98,2.68-7.97,4.01-11.96.25-.75.43-1.52.49-2.32.31-4.26-2.35-6.96-6.6-6.67-1.71.12-3.01.93-3.83,2.42-1.29,2.36-2.55,4.75-3.76,7.16-2.49,4.96-4.93,9.95-7.39,14.93-1.2,2.44-2.72,4.65-4.53,6.67-1.55,1.73-3.1,2.04-5.09,1.07-1.8-.88-2.4-2.28-1.85-4.61,1.05-4.42,2.81-8.59,4.31-12.85,2.43-6.91,3.81-14.07,5-21.29,1.6-9.71,3.26-19.41,4.89-29.11.64-3.79,2.79-6.53,6.35-7.64,6.18-1.93,12.5-3.33,18.94-4.05.16-.02.32,0,.47,0ZM343.92,217.26c0-1.27.09-2.54-.02-3.8-.14-1.57-.25-3.17-1.19-4.54-.9-1.31-1.95-1.54-3.18-.57-.67.53-1.27,1.19-1.76,1.9-2.98,4.27-4.18,9.18-4.76,14.25-.25,2.17,1.29,3.75,3.5,3.97,3.33.34,6.41-1.99,7.05-5.31.38-1.95.47-3.92.38-5.91Z"/>
        <path d="M217.94,258.82c-2.87,3.88-5.72,7.77-8.61,11.63-1.76,2.35-3.62,4.63-5.82,6.57-2.43,2.15-4.45,2.18-6.58-.28-4.04-4.67-7.86-9.54-11.79-14.3-.62-.76-1.07-1.77-2.24-1.99-.59.75-.37,1.57-.35,2.32.19,7.08-.15,14.13-1.02,21.16-.25,1.98-.5,3.94-1.54,5.7-.41.69-.84,1.34-1.65,1.63-2.13.75-3.44-.18-3.53-2.65-.22-6.11-.32-12.23-.58-18.34-.26-6.19-.28-12.39-.73-18.57-.25-3.49-.79-6.94-1.29-10.39-.38-2.61-.45-5.22-.31-7.84.11-2.13,1.08-2.97,3.21-2.8,1.55.13,2.83.82,3.97,1.9,5.73,5.46,11.49,10.89,17.25,16.33.17.16.33.35.5.51,3.12,2.94,5.51,2.92,8.19-.46,4.19-5.28,8.19-10.69,12.28-16.05,2.79-3.65,5.59-7.3,8.38-10.95.58-.76,1.24-1.43,2.04-1.97,1.51-1.01,3.07-1.12,4.7-.3,1.6.81,2.24,2.14,2.26,3.87.04,4.22-.4,8.41-.67,12.61-.35,5.55-.81,11.08-1.21,16.63-.43,6.1-.77,12.21-1.92,18.22-.89,4.68-2.47,9.19-4.06,13.68-1.1,3.11-3.9,4.8-7.01,4.6-2.99-.19-4.49-1.85-4.19-4.83.24-2.37.6-4.73.98-7.08.98-6.12,1-12.32,1.78-18.46-.15-.04-.3-.07-.45-.11Z"/>
        <path d="M295.29,220.32c.16,3.61-.49,7.09-1.62,10.52-1.1,3.33-3.01,6.11-5.34,8.62-.85.91-1.14,1.48-.08,2.48,2.52,2.37,3.55,5.42,3.32,8.83-.42,6.49-1.74,12.73-5.36,18.29-2.6,4-6.23,6.48-10.88,7.38-7.36,1.42-14.74,2.75-22.11,4.12-.08.01-.15.03-.23.05-3.29.53-4.21-.35-3.78-3.74.29-2.2.73-4.38,1.09-6.57,1.56-9.39,3.32-18.76,3.91-28.29.42-6.74.82-13.48.51-20.23-.1-2.15.04-4.28.11-6.42.08-2.44,1.33-4.03,3.59-4.77,2.02-.66,4.08-1.24,6.14-1.79,4.73-1.27,9.46-2.52,14.19-3.75,2.8-.73,5.6-.87,8.38.18,5.31,2,7.58,6.16,8.13,11.53.12,1.18.02,2.38.02,3.57ZM277.04,254.59c-.04-4.33-3.12-6.78-7.27-5.68-2.5.66-4.53,2.15-5.23,4.72-1.1,4.05-1.77,8.21-2.27,12.38-.23,1.86.74,2.63,2.57,2.41,6.32-.73,12.27-7.48,12.21-13.84ZM268.72,228.76s-.01,0-.02,0c0,1.11,0,2.22,0,3.33.01,1.11,0,2.22.08,3.33.18,2.84,2.33,4.04,4.8,2.69,2.31-1.26,3.53-3.36,4.15-5.82.64-2.55.89-5.16.85-7.79-.05-2.98-1.81-4.87-4.35-5.98-2.77-1.21-5.34.5-5.48,3.57-.1,2.22-.02,4.44-.02,6.66Z"/>
        <path d="M154.97,264.83c-.16,3.89-.11,7.79-.51,11.65-.97,9.32-8.4,15.87-18.96,14.25-5.35-.82-10.2-6.62-10.42-12.4-.39-10.63-2.69-20.9-5.61-31.06-.81-2.82-1.61-5.64-2.34-8.48-.86-3.34.08-4.62,3.5-4.78,1.97-.09,3.95-.03,5.92-.12,1.88-.09,2.9.81,3.49,2.54,2.82,8.29,4.72,16.77,5.64,25.49.51,4.83.1,9.69.84,14.49.14.94.37,1.87.68,2.76.28.77.83,1.39,1.74,1.41.99.02,1.66-.58,2.01-1.42.59-1.41.69-2.92.54-4.44-1.09-11.53-2.17-23.06-3.25-34.6-.16-1.74-.34-3.47-.5-5.21-.13-1.31.49-1.89,1.77-1.94,3.15-.11,6.31-.31,9.46-.37,2.57-.05,3.17.51,3.6,3.07,1.08,6.34,1.58,12.75,1.95,19.17.19,3.32.03,6.66.03,9.99.14,0,.29,0,.43,0Z"/>
        <path d="M93.99,243.82c.64,2.7,1.21,5.32,1.87,7.91,1.46,5.76,2.95,11.52,4.43,17.27.36,1.39.71,2.78.7,4.22-.02,1.73-.84,3.16-1.96,3.53-1.16.38-2.89-.4-3.75-1.92-.74-1.3-1.3-2.71-1.89-4.1-3.72-8.75-7.48-17.49-11.1-26.28-.82-1.99-2.06-3.04-4.09-3.46-3.01-.62-6.03-1.24-8.97-2.15-.99-.31-1.95-.66-2.74-1.35-1.22-1.08-1.8-2.39-1.37-4.04.43-1.59,1.61-2.29,3.11-2.53,1.82-.29,3.63.04,5.42.23,5.18.54,10.34,1.2,15.51,1.8,4.07.48,8.15.9,12.22,1.42,2.58.32,4.35,1.79,5.24,4.23.61,1.66.22,2.67-1.2,3.7-1.48,1.07-3.13,1.4-4.92,1.38-2.11-.03-4.24-.23-6.52.14Z"/>
        <path d="M416.71,221.88c-.05,2.68-1.99,6.01-3.78,9.34-5.91,11.03-12.45,21.7-18.86,32.44-1.19,2-2.7,3.71-4.56,5.1-1.44,1.08-2.93,1.06-4.12.04-.98-.84-1.23-2.1-.4-3.7,1.38-2.67,2.83-5.32,4.41-7.87,5.54-8.92,9.46-18.62,13.73-28.16,1.94-4.34,3.91-8.66,5.9-12.98.84-1.82,1.74-2.16,3.61-1.5,2.65.93,4.31,3.33,4.06,7.28Z" fill="#fff"/>
        <path d="M343.92,217.26c.1,1.98,0,3.95-.38,5.91-.64,3.32-3.72,5.66-7.05,5.31-2.2-.23-3.75-1.8-3.5-3.97.59-5.07,1.78-9.98,4.76-14.25.49-.7,1.09-1.37,1.76-1.9,1.24-.97,2.28-.74,3.18.57.94,1.37,1.05,2.97,1.19,4.54.11,1.26.02,2.53.02,3.8Z" fill="#fff"/>
        <path d="M277.04,254.59c.06,6.36-5.89,13.1-12.21,13.84-1.83.21-2.79-.55-2.57-2.41.51-4.17,1.17-8.33,2.27-12.38.7-2.57,2.73-4.05,5.23-4.72,4.16-1.11,7.24,1.34,7.27,5.68Z" fill="#fff"/>
        <path d="M268.72,228.76c0-2.22-.08-4.45.02-6.66.14-3.06,2.71-4.77,5.48-3.57,2.54,1.1,4.3,3,4.35,5.98.05,2.62-.21,5.24-.85,7.79-.62,2.46-1.84,4.56-4.15,5.82-2.47,1.35-4.62.15-4.8-2.69-.07-1.11-.06-2.22-.08-3.33-.01-1.11,0-2.22,0-3.33,0,0,.01,0,.02,0Z" fill="#fff"/>
      </g>
    </g>
  </g>
</svg>
